HIERARCHY
ROOT Hips
{
  OFFSET 0.000000 98.090000 -3.080000
  CHANNELS 6 Xposition Yposition Zposition Zrotation Xrotation Yrotation
  JOINT RightUpLeg
  {
    OFFSET -9.030000 -4.720000 5.010000
    CHANNELS 3 Zrotation Xrotation Yrotation
    JOINT RightLeg
    {
      OFFSET 0.000000 -39.500000 0.000000
      CHANNELS 1 Xrotation
      JOINT RightFoot
      {
        OFFSET 0.000000 -39.830000 0.000000
        CHANNELS 3 Zrotation Xrotation Yrotation
        JOINT RightToeBase
        {
          OFFSET 0.000000 -5.750000 6.920000
          CHANNELS 1 Xrotation
          End Site
          {
            OFFSET 0.000000 0.000000 0.000000
          }
        }
        JOINT RightFootPinky
        {
          OFFSET -4.460000 -5.340000 4.940000
          CHANNELS 1 Xrotation
          End Site
          {
            OFFSET 0.000000 0.000000 0.000000
          }
        }
      }
    }
  }
  JOINT LeftUpLeg
  {
    OFFSET 9.030000 -4.720000 5.010000
    CHANNELS 3 Zrotation Xrotation Yrotation
    JOINT LeftLeg
    {
      OFFSET 0.000000 -39.500000 0.000000
      CHANNELS 1 Xrotation
      JOINT LeftFoot
      {
        OFFSET 0.000000 -39.830000 0.000000
        CHANNELS 3 Zrotation Xrotation Yrotation
        JOINT LeftToeBase
        {
          OFFSET 0.000000 -5.750000 6.920000
          CHANNELS 1 Xrotation
          End Site
          {
            OFFSET 0.000000 0.000000 0.000000
          }
        }
        JOINT LeftFootPinky
        {
          OFFSET 4.460000 -5.340000 4.940000
          CHANNELS 1 Xrotation
          End Site
          {
            OFFSET 0.000000 0.000000 0.000000
          }
        }
      }
    }
  }
  JOINT Spine
  {
    OFFSET 0.000000 8.660000 -1.260000
    CHANNELS 3 Zrotation Xrotation Yrotation
    JOINT Spine1
    {
      OFFSET 0.000000 10.860000 -0.640000
      CHANNELS 3 Zrotation Xrotation Yrotation
      JOINT Neck
      {
        OFFSET 0.000000 30.830000 0.620000
        CHANNELS 3 Zrotation Xrotation Yrotation
        JOINT Head
        {
          OFFSET 0.000000 8.080000 3.500000
          CHANNELS 3 Zrotation Xrotation Yrotation
          End Site
          {
            OFFSET 0.000000 0.000000 0.000000
          }
        }
      }
      JOINT RightShoulder
      {
        OFFSET -1.470000 7.350000 0.550000
        CHANNELS 3 Zrotation Xrotation Yrotation
        JOINT RightArm
        {
          OFFSET -18.480000 -1.850000 0.280000
          CHANNELS 3 Zrotation Xrotation Yrotation
          JOINT RightForeArm
          {
            OFFSET -32.390000 0.000000 0.000000
            CHANNELS 1 Xrotation
            JOINT RightHand
            {
              OFFSET -28.680000 0.000000 0.000000
              CHANNELS 3 Zrotation Xrotation Yrotation
              End Site
              {
                OFFSET 0.000000 0.000000 0.000000
              }
            }
          }
        }
      }
      JOINT LeftShoulder
      {
        OFFSET 1.470000 7.350000 0.550000
        CHANNELS 3 Zrotation Xrotation Yrotation
        JOINT LeftArm
        {
          OFFSET 18.480000 -1.850000 0.280000
          CHANNELS 3 Zrotation Xrotation Yrotation
          JOINT LeftForeArm
          {
            OFFSET 32.390000 0.000000 0.000000
            CHANNELS 1 Xrotation
            JOINT LeftHand
            {
              OFFSET 28.680000 0.000000 0.000000
              CHANNELS 3 Zrotation Xrotation Yrotation
              End Site
              {
                OFFSET 0.000000 0.000000 0.000000
              }
            }
          }
        }
      }
    }
  }
}
MOTION
Frames:	21
Frame Time:	0.03333333
13.885527 104.253941 -50.249525 25.373783 4.210985 -41.223584 -73.068613 -83.051625 -58.764811 33.297754 -13.366351 -34.255840 -7.949460 0.042686 -0.047767 -4.487633 33.123063 -22.588331 9.054426 -0.355406 0.226031 24.980362 0.095616 -0.045386 2.650684 -1.505808 -5.062867 1.097795 -6.721553 -6.773711 2.509713 1.608580 -5.385502 0.090686 0.016431 0.006568 -0.017106 -0.019648 -0.003675 69.036862 -3.135634 -40.413237 13.503839 0.063668 32.954622 -0.036139 -0.038158 0.029540 -0.003586 -65.190215 30.143194 11.773545 -22.253671 -0.000670 24.038526 0.063228
13.293948 104.292943 -49.696140 25.524644 3.865029 -41.373343 -76.281135 -82.989115 -61.930279 33.412566 -13.303307 -34.074811 -7.855403 0.043327 -0.048942 -4.503280 33.112519 -22.502569 9.849853 -0.417878 0.320921 24.697866 0.096916 -0.046319 2.663357 -1.538988 -5.123958 1.072800 -6.724816 -6.849154 2.504725 1.677251 -5.442697 0.092046 0.016549 0.006296 -0.016208 -0.021192 -0.002997 68.595848 -3.563065 -40.414033 13.192102 0.065476 33.422146 -0.035723 -0.039100 0.030349 -0.004189 -64.978803 29.949174 12.017627 -21.750328 0.000024 24.603269 0.064908
12.706172 104.319515 -49.185398 25.669118 3.532523 -41.468851 -79.676738 -82.906705 -65.269856 33.567332 -13.253184 -33.885657 -7.763199 0.043931 -0.050009 -4.505703 33.117090 -22.440014 10.606140 -0.468309 0.371056 24.419626 0.098140 -0.047211 2.672769 -1.563578 -5.185414 1.048264 -6.726286 -6.925207 2.500013 1.746230 -5.504275 0.093318 0.016682 0.005991 -0.015403 -0.022605 -0.002297 68.182654 -4.006112 -40.425197 12.870821 0.067244 33.902594 -0.035300 -0.039966 0.031111 -0.004724 -64.777670 29.751395 12.255544 -21.247373 0.000924 25.184794 0.066468
12.122244 104.336618 -48.714416 25.812467 3.203981 -41.549722 -83.404229 -82.805066 -68.924158 33.750934 -13.212675 -33.700000 -7.672285 0.044498 -0.050988 -4.490142 33.161603 -22.414518 11.318562 -0.508067 0.389618 24.151259 0.099357 -0.047999 2.679101 -1.576955 -5.249083 1.024753 -6.731474 -7.004951 2.498669 1.826508 -5.570211 0.094655 0.016823 0.005757 -0.014690 -0.023912 -0.001716 67.808968 -4.474289 -40.466516 12.525781 0.068996 34.408366 -0.035063 -0.040779 0.031854 -0.005156 -64.569178 29.543671 12.479128 -20.746940 0.002034 25.789521 0.067891
11.555772 104.348603 -48.276947 25.960919 2.871487 -41.657741 -87.343423 -82.677527 -72.770593 33.974786 -13.173155 -33.522447 -7.580868 0.045034 -0.051915 -4.459264 33.240053 -22.420539 11.985043 -0.538390 0.373832 23.890322 0.100567 -0.048729 2.678176 -1.580784 -5.314565 1.002135 -6.738190 -7.088064 2.498516 1.919112 -5.638480 0.095957 0.016966 0.005575 -0.014001 -0.025137 -0.001233 67.471678 -4.956849 -40.533655 12.159241 0.070725 34.944493 -0.034979 -0.041557 0.032565 -0.005553 -64.367279 29.326530 12.693300 -20.248644 0.003075 26.412262 0.069216
11.006988 104.353822 -47.841410 26.110676 2.523797 -41.834443 -91.268843 -82.515743 -76.585077 34.243174 -13.125683 -33.348952 -7.482217 0.045544 -0.052829 -4.419099 33.331782 -22.446809 12.609895 -0.559163 0.316524 23.628178 0.101683 -0.049450 2.665435 -1.571426 -5.379893 0.979518 -6.744598 -7.171812 2.497400 2.020535 -5.708117 0.097107 0.017087 0.005422 -0.013232 -0.026347 -0.000815 67.161679 -5.444841 -40.609747 11.782012 0.072415 35.510443 -0.035025 -0.042323 0.033222 -0.006006 -64.185458 29.099778 12.902330 -19.757762 0.003786 27.039745 0.070502
10.472836 104.347454 -47.374899 26.251508 2.160376 -42.076672 -94.982291 -82.316449 -80.172119 34.554306 -13.063253 -33.172365 -7.369663 0.046015 -0.053712 -4.373802 33.417376 -22.483772 13.195090 -0.571042 0.213276 23.357998 0.102631 -0.050155 2.638640 -1.546729 -5.443155 0.955964 -6.749123 -7.252430 2.494126 2.124373 -5.778783 0.098058 0.017172 0.005269 -0.012372 -0.027541 -0.000423 66.874884 -5.937726 -40.678306 11.407047 0.074029 36.101353 -0.035136 -0.043052 0.033793 -0.006525 -64.028775 28.868049 13.105004 -19.281022 0.004085 27.661127 0.071746
9.953240 104.326160 -46.869909 26.375954 1.793068 -42.343635 -98.428629 -82.081803 -83.479342 34.903962 -12.986042 -32.985193 -7.244652 0.046442 -0.054542 -4.323261 33.493640 -22.528998 13.732877 -0.575989 0.067385 23.081840 0.103394 -0.050850 2.598640 -1.509166 -5.503626 0.931442 -6.750293 -7.328314 2.488778 2.225291 -5.849948 0.098764 0.017226 0.005087 -0.011445 -0.028696 -0.000023 66.612655 -6.441502 -40.732294 11.040383 0.075556 36.707454 -0.035252 -0.043723 0.034269 -0.007099 -63.898915 28.637380 13.299366 -18.818092 0.004037 28.275230 0.072951
9.459982 104.289609 -46.340827 26.482565 1.436022 -42.589448 -101.679222 -81.815850 -86.578816 35.289431 -12.899544 -32.783776 -7.114020 0.046832 -0.055318 -4.263639 33.572888 -22.588114 14.211667 -0.576127 -0.111198 22.809591 0.104008 -0.051530 2.547544 -1.463296 -5.561680 0.906874 -6.746947 -7.400369 2.481586 2.320814 -5.920616 0.099281 0.017262 0.004885 -0.010489 -0.029803 0.000373 66.380101 -6.963810 -40.775541 10.679281 0.077017 37.319733 -0.035384 -0.044341 0.034664 -0.007699 -63.792091 28.409962 13.481874 -18.363735 0.003805 28.888744 0.074110
9.012717 104.240538 -45.806239 26.574935 1.092996 -42.805181 -104.800647 -81.522078 -89.536613 35.710830 -12.808346 -32.566954 -6.985172 0.047190 -0.056039 -4.191706 33.666988 -22.666329 14.622351 -0.572485 -0.312423 22.548893 0.104575 -0.052171 2.485091 -1.411381 -5.617960 0.883375 -6.739004 -7.470279 2.472185 2.412191 -5.988676 0.099722 0.017296 0.004687 -0.009548 -0.030831 0.000736 66.180811 -7.503476 -40.814189 10.320955 0.078427 37.929189 -0.035569 -0.044912 0.035010 -0.008280 -63.706855 28.181530 13.651345 -17.914349 0.003590 29.506527 0.075182
8.626576 104.182537 -45.267981 26.655693 0.757051 -43.017329 -107.771462 -81.204101 -92.331598 36.168250 -12.715554 -32.333574 -6.861066 0.047499 -0.056690 -4.107582 33.777801 -22.763218 14.962611 -0.564587 -0.532304 22.300112 0.105112 -0.052750 2.409105 -1.351755 -5.672163 0.861011 -6.726475 -7.538169 2.460430 2.500244 -6.052557 0.100127 0.017329 0.004519 -0.008636 -0.031761 0.001038 66.014157 -8.052546 -40.847587 9.968110 0.079762 38.528448 -0.035834 -0.045423 0.035314 -0.008823 -63.644255 27.946675 13.808730 -17.473578 0.003419 30.124330 0.076123
8.302897 104.117544 -44.708181 26.722582 0.416626 -43.262403 -110.492244 -80.867254 -94.866244 36.657520 -12.621721 -32.081351 -6.738931 0.047743 -0.057261 -4.014973 33.896087 -22.872635 15.235265 -0.551476 -0.772632 22.056428 0.105561 -0.053266 2.316731 -1.280597 -5.722915 0.838922 -6.709842 -7.602152 2.446347 2.583844 -6.111661 0.100440 0.017348 0.004363 -0.007728 -0.032587 0.001303 65.876994 -8.601499 -40.867006 9.629620 0.080977 39.110842 -0.036134 -0.045854 0.035553 -0.009351 -63.606900 27.703775 13.956247 -17.052507 0.003193 30.730250 0.076922
8.029375 104.045574 -44.102948 26.769880 0.066718 -43.550538 -112.874340 -80.517714 -97.054559 37.170113 -12.524764 -31.806895 -6.613947 0.047914 -0.057742 -3.917995 34.011366 -22.987987 15.442428 -0.533177 -1.035669 21.810738 0.105839 -0.053739 2.206903 -1.195413 -5.768739 0.816021 -6.689882 -7.659696 2.430394 2.660054 -6.166322 0.100568 0.017341 0.004179 -0.006793 -0.033323 0.001591 65.766938 -9.146665 -40.862463 9.315393 0.082031 39.670213 -0.036369 -0.046189 0.035704 -0.009898 -63.595606 27.457327 14.095036 -16.663250 0.002807 31.313603 0.077602
7.792097 103.966673 -43.442638 26.794152 -0.287439 -43.859486 -114.924743 -80.159387 -98.905483 37.697151 -12.423546 -31.506756 -6.485548 0.048011 -0.058121 -3.817106 34.124218 -23.108856 15.580923 -0.511265 -1.318099 21.562776 0.105903 -0.054184 2.081661 -1.097609 -5.809181 0.791900 -6.667375 -7.709647 2.413971 2.726464 -6.217183 0.100450 0.017308 0.003938 -0.005834 -0.033964 0.001938 65.684947 -9.693495 -40.830944 9.029007 0.082904 40.200758 -0.036461 -0.046412 0.035755 -0.010469 -63.607786 27.214801 14.225053 -16.310890 0.002257 31.872573 0.078178
7.588953 103.882504 -42.736561 26.797195 -0.634940 -44.151321 -116.740653 -79.792836 -100.516380 38.234162 -12.320160 -31.179954 -6.358194 0.048039 -0.058399 -3.708508 34.248218 -23.242358 15.643772 -0.487913 -1.610865 21.320481 0.105765 -0.054602 1.944589 -0.991788 -5.844907 0.767174 -6.642344 -7.753025 2.398135 2.781787 -6.264265 0.100104 0.017256 0.003644 -0.004871 -0.034513 0.002338 65.634149 -10.251923 -40.777703 8.766259 0.083608 40.697335 -0.036407 -0.046531 0.035713 -0.011050 -63.637768 26.981527 14.344634 -15.992907 0.001627 32.413814 0.078655
7.430149 103.796849 -42.003853 26.784765 -0.970539 -44.411370 -118.425178 -79.417632 -101.989331 38.781037 -12.217756 -30.827758 -6.238404 0.048010 -0.058593 -3.587799 34.399031 -23.396972 15.624436 -0.464519 -1.903612 21.092563 0.105500 -0.054988 1.797603 -0.881974 -5.876933 0.742943 -6.614818 -7.791903 2.382966 2.827087 -6.306284 0.099601 0.017198 0.003320 -0.003919 -0.034973 0.002764 65.616557 -10.825319 -40.710662 8.520924 0.084169 41.154012 -0.036241 -0.046564 0.035605 -0.011624 -63.682831 26.756832 14.453352 -15.704945 0.001040 32.944187 0.079020
7.326303 103.714267 -41.253606 26.761835 -1.297735 -44.656286 -120.015212 -79.036303 -103.360463 39.338632 -12.119531 -30.452291 -6.130102 0.047919 -0.058711 -3.453424 34.583538 -23.576573 15.521253 -0.440878 -2.190781 20.882157 0.105153 -0.055324 1.640314 -0.768748 -5.905480 0.719646 -6.584849 -7.827252 2.368024 2.863594 -6.341866 0.099000 0.017136 0.002990 -0.002985 -0.035342 0.003184 65.630818 -11.407942 -40.632474 8.291422 0.084579 41.564512 -0.036000 -0.046520 0.035451 -0.012177 -63.743867 26.536481 14.552275 -15.447689 0.000540 33.462324 0.079243
7.278080 103.637819 -40.477585 26.728820 -1.625383 -44.917560 -121.472593 -78.655742 -104.592289 39.904425 -12.026967 -30.055784 -6.031800 0.047759 -0.058761 -3.307689 34.796828 -23.778633 15.338077 -0.416113 -2.472775 20.685249 0.104710 -0.055615 1.470995 -0.649942 -5.929678 0.696907 -6.552596 -7.858116 2.352464 2.890699 -6.370209 0.098292 0.017061 0.002653 -0.002037 -0.035634 0.003606 65.673323 -11.988635 -40.537284 8.082838 0.084810 41.923067 -0.035659 -0.046402 0.035247 -0.012731 -63.823752 26.318151 14.643277 -15.228316 0.000047 33.957174 0.079325
7.272040 103.568130 -39.657100 26.682423 -1.958780 -45.209541 -122.737525 -78.284000 -105.626511 40.471586 -11.937801 -29.640113 -5.938284 0.047532 -0.058755 -3.154557 35.028449 -23.997931 15.080161 -0.390013 -2.752215 20.494875 0.104126 -0.055887 1.288632 -0.523198 -5.948231 0.673976 -6.518706 -7.882486 2.335823 2.906519 -6.391532 0.097423 0.016961 0.002274 -0.001034 -0.035877 0.004085 65.740646 -12.558826 -40.416049 7.903610 0.084829 42.225737 -0.035130 -0.046211 0.034984 -0.013328 -63.924308 26.104944 14.727512 -15.055846 -0.000561 34.415713 0.079309
7.289686 103.504724 -38.780882 26.620442 -2.294520 -45.515956 -123.798828 -77.924933 -106.453081 41.032893 -11.848456 -29.206520 -5.846068 0.047240 -0.058691 -2.995272 35.274760 -24.233273 14.749469 -0.363780 -3.028505 20.308240 0.103360 -0.056166 1.094693 -0.388727 -5.960625 0.650465 -6.483823 -7.899115 2.318839 2.909254 -6.406806 0.096338 0.016833 0.001824 0.000035 -0.036081 0.004661 65.831686 -13.118615 -40.264719 7.758379 0.084622 42.470358 -0.034333 -0.045940 0.034651 -0.013987 -64.043866 25.904016 14.804936 -14.933434 -0.001346 34.832209 0.079233
7.320805 103.447562 -37.853650 26.545200 -2.622749 -45.799538 -124.712461 -77.576869 -107.127711 41.584971 -11.757665 -28.756433 -5.756413 0.046882 -0.058554 -2.826487 35.543457 -24.490417 14.343895 -0.339252 -3.296113 20.129328 0.102411 -0.056444 0.892453 -0.249586 -5.967540 0.626860 -6.448083 -7.908591 2.302645 2.898245 -6.416767 0.095038 0.016682 0.001308 0.001141 -0.036233 0.005326 65.947408 -13.674608 -40.087109 7.644795 0.084192 42.655197 -0.033266 -0.045578 0.034244 -0.014684 -64.177131 25.721712 14.874162 -14.856770 -0.002263 35.210242 0.079094
